<svg width="256" height="256" viewBox="0 0 256 256" fill="none" xmlns="http://www.w3.org/2000/svg">
<mask id="mask0_125_7" style="mask-type:alpha" maskUnits="userSpaceOnUse" x="0" y="0" width="256" height="256">
<circle cx="128" cy="128" r="128" fill="#3A00FF"/>
</mask>
<g mask="url(#mask0_125_7)">
<circle cx="128" cy="128" r="128" fill="#3100D6"/>
<path d="M101.608 93.7H134.744C141.502 93.7 146.952 95.5167 151.094 99.15C155.236 102.783 157.307 107.797 157.307 114.192C157.307 118.552 156.144 122.185 153.819 125.092C151.566 127.999 148.478 129.997 144.554 131.087V132.395C148.405 133.485 151.494 135.483 153.819 138.39C156.217 141.297 157.416 144.966 157.416 149.399C157.416 155.648 155.309 160.662 151.094 164.441C146.879 168.147 141.466 170 134.853 170H101.608V93.7ZM114.252 105.254V125.964H133.654C137.215 125.964 140.012 125.056 142.047 123.239C144.154 121.422 145.208 118.843 145.208 115.5C145.208 112.23 144.154 109.723 142.047 107.979C139.94 106.162 137.106 105.254 133.545 105.254H114.252ZM114.252 137.518V158.446H133.654C137.215 158.446 140.049 157.538 142.156 155.721C144.263 153.904 145.317 151.361 145.317 148.091C145.317 144.748 144.263 142.169 142.156 140.352C140.121 138.463 137.324 137.518 133.763 137.518H114.252Z" fill="white"/>
</g>
</svg>
