<svg width="256" height="256" viewBox="0 0 256 256" fill="none" xmlns="http://www.w3.org/2000/svg">
<mask id="mask0_124_71" style="mask-type:alpha" maskUnits="userSpaceOnUse" x="0" y="0" width="256" height="256">
<circle cx="128" cy="128" r="128" fill="#3A00FF"/>
</mask>
<g mask="url(#mask0_124_71)">
<circle cx="128" cy="128" r="128" fill="black"/>
<path d="M114.959 181H78V93H113.465C130.703 93 140.75 102.641 140.75 117.718C140.75 127.488 134.306 133.781 129.842 135.884C135.183 138.359 142 143.924 142 155.667C142 172.103 130.703 181 114.959 181ZM112.102 108.319H95.2375V128.604H112.102C119.422 128.604 123.512 124.528 123.512 118.462C123.512 112.412 119.422 108.319 112.102 108.319ZM113.222 144.053H95.2375V165.681H113.222C121.029 165.681 124.762 160.731 124.762 154.81C124.746 148.873 121.029 144.053 113.222 144.053Z" fill="white"/>
<path d="M178 66H161V154H178V66Z" fill="#F7A600"/>
</g>
</svg>
