<svg width="256" height="256" viewBox="0 0 256 256" fill="none" xmlns="http://www.w3.org/2000/svg">
<mask id="mask0_125_17" style="mask-type:alpha" maskUnits="userSpaceOnUse" x="0" y="0" width="256" height="256">
<circle cx="128" cy="128" r="128" fill="#3A00FF"/>
</mask>
<g mask="url(#mask0_125_17)">
<circle cx="128" cy="128" r="128" fill="#F7A600"/>
<path d="M58.2468 123.822C58.2468 116.551 60.2968 110.839 64.3968 106.684C68.5515 102.529 74.2095 100.452 81.3708 100.452C88.3682 100.452 93.7802 102.311 97.6068 106.028C101.488 109.745 103.429 114.802 103.429 121.198V122.92H93.9168V121.28C93.9168 117.508 92.8508 114.529 90.7188 112.342C88.6415 110.155 85.5255 109.062 81.3708 109.062C77.1068 109.062 73.7722 110.374 71.3668 112.998C68.9615 115.567 67.7588 119.039 67.7588 123.412V137.188C67.7588 141.671 68.9342 145.197 71.2848 147.766C73.6355 150.281 76.9975 151.538 81.3708 151.538C85.6348 151.538 88.7782 150.472 90.8008 148.34C92.8782 146.153 93.9168 143.147 93.9168 139.32V137.68H103.429V139.238C103.429 145.743 101.515 150.855 97.6888 154.572C93.9168 158.289 88.4775 160.148 81.3708 160.148C74.2095 160.148 68.5515 158.125 64.3968 154.08C60.2968 149.98 58.2468 144.213 58.2468 136.778V123.822ZM109.417 123.822C109.417 116.551 111.467 110.839 115.567 106.684C119.721 102.529 125.379 100.452 132.541 100.452C139.538 100.452 144.95 102.311 148.777 106.028C152.658 109.745 154.599 114.802 154.599 121.198V122.92H145.087V121.28C145.087 117.508 144.021 114.529 141.889 112.342C139.811 110.155 136.695 109.062 132.541 109.062C128.277 109.062 124.942 110.374 122.537 112.998C120.131 115.567 118.929 119.039 118.929 123.412V137.188C118.929 141.671 120.104 145.197 122.455 147.766C124.805 150.281 128.167 151.538 132.541 151.538C136.805 151.538 139.948 150.472 141.971 148.34C144.048 146.153 145.087 143.147 145.087 139.32V137.68H154.599V139.238C154.599 145.743 152.685 150.855 148.859 154.572C145.087 158.289 139.647 160.148 132.541 160.148C125.379 160.148 119.721 158.125 115.567 154.08C111.467 149.98 109.417 144.213 109.417 136.778V123.822ZM162.719 101.6H172.231V150.308H199.619V159H162.719V101.6Z" fill="white"/>
</g>
</svg>
