<svg width="256" height="256" viewBox="0 0 256 256" fill="none" xmlns="http://www.w3.org/2000/svg">
<mask id="mask0_121_25" style="mask-type:alpha" maskUnits="userSpaceOnUse" x="0" y="0" width="256" height="256">
<circle cx="128" cy="128" r="128" fill="#D9D9D9"/>
</mask>
<g mask="url(#mask0_121_25)">
<path d="M100.255 142.96H60.1314C55.0776 142.96 50.9429 138.817 50.9429 133.754C50.9429 128.691 55.0776 124.548 60.1314 124.548H100.255C105.309 124.548 109.443 128.691 109.443 133.754C109.443 138.817 105.309 142.96 100.255 142.96ZM60.1314 101.381C55.0776 101.381 50.9429 97.238 50.9429 92.1749C50.9429 87.1117 55.0776 82.9692 60.1314 82.9692H112.659C117.713 82.9692 121.848 87.1117 121.848 92.1749C121.848 97.238 117.713 101.381 112.659 101.381H60.1314ZM120.01 191.597C115.11 190.062 112.353 184.999 113.884 180.089L142.063 87.5719C143.594 82.6623 148.648 79.9005 153.548 81.4349C158.449 82.9692 161.205 88.0323 159.674 92.942L131.496 185.459C129.964 190.369 124.911 193.131 120.01 191.597ZM201.788 92.942L173.61 185.459C172.079 190.369 167.025 193.131 162.124 191.597C157.224 190.062 154.467 184.999 155.999 180.089L184.177 87.5719C185.708 82.6623 190.762 79.9005 195.663 81.4349C200.563 82.9692 203.32 88.1857 201.788 92.942Z" fill="#EFB41D"/>
<path d="M127.821 256.497C57.0689 256.497 -0.359619 198.807 -0.359619 128.077C-0.359619 57.3465 57.0689 -0.496094 127.821 -0.496094C198.573 -0.496094 256 57.193 256 127.924C256 198.654 198.573 256.497 127.821 256.497ZM127.821 15.7673C66.1043 15.7673 15.8735 66.0918 15.8735 127.924C15.8735 189.755 66.1043 240.079 127.821 240.079C189.537 240.079 239.768 189.755 239.768 127.924C239.768 66.0918 189.537 15.7673 127.821 15.7673Z" fill="#EFB41D"/>
</g>
</svg>
