<svg width="256" height="256" viewBox="0 0 256 256" fill="none" xmlns="http://www.w3.org/2000/svg">
<mask id="mask0_124_62" style="mask-type:alpha" maskUnits="userSpaceOnUse" x="0" y="0" width="256" height="256">
<circle cx="128" cy="128" r="128" fill="#3A00FF"/>
</mask>
<g mask="url(#mask0_124_62)">
<circle cx="128" cy="128" r="128" fill="#2AFD3D"/>
<path d="M128.425 60.0001C114.879 60.015 101.641 64.0457 90.386 71.5828C79.1306 79.1198 70.3626 89.8247 65.1903 102.344C60.018 114.864 58.6737 128.636 61.3273 141.919C63.9809 155.203 70.5134 167.401 80.0988 176.972C89.6842 186.544 101.892 193.058 115.179 195.692C128.467 198.326 142.237 196.962 154.749 191.771C167.261 186.581 177.953 177.797 185.473 166.53C192.994 155.264 197.005 142.021 197 128.475C196.998 119.475 195.222 110.563 191.774 102.25C188.326 93.9364 183.273 86.3841 176.904 80.0247C170.535 73.6653 162.976 68.6235 154.657 65.1875C146.339 61.7516 137.425 59.9888 128.425 60.0001ZM164.422 131.693C163.968 132.07 163.46 132.375 162.913 132.597C162.303 132.864 161.661 133.05 161.003 133.15C159.499 133.366 157.971 133.332 156.478 133.05C153.311 132.497 150.043 131.039 147.026 129.279C143.939 127.429 141.057 125.254 138.429 122.794C137.072 121.587 135.815 120.28 134.558 118.923C133.301 117.565 132.145 116.157 131.039 114.699C130.812 114.379 130.468 114.163 130.081 114.097C129.695 114.031 129.298 114.121 128.978 114.348C128.658 114.574 128.441 114.919 128.375 115.305C128.309 115.692 128.399 116.089 128.626 116.409C129.681 118.018 130.737 119.576 131.894 121.135C133.05 122.693 134.257 124.151 135.564 125.609C138.177 128.521 141.073 131.165 144.211 133.502C147.429 135.815 150.948 137.876 155.07 139.033C156.401 139.414 157.764 139.667 159.143 139.787C159.322 139.804 159.494 139.866 159.642 139.968C159.79 140.07 159.91 140.208 159.991 140.368C160.071 140.529 160.109 140.708 160.102 140.888C160.094 141.067 160.041 141.242 159.947 141.396C157.652 145.189 154.919 148.699 151.803 151.853C142.25 161.405 130.033 166.634 118.822 166.634C114.163 166.686 109.554 165.671 105.348 163.668L104.393 163.215C104.236 163.134 104.06 163.096 103.884 163.105C103.707 163.114 103.536 163.169 103.388 163.265L102.483 163.818C101.062 164.756 99.4078 165.278 97.7064 165.327C96.2996 165.364 94.9322 164.86 93.8855 163.919C92.0253 162.059 91.9751 158.64 93.785 155.573L94.338 154.618C94.4362 154.469 94.4885 154.294 94.4885 154.115C94.4885 153.937 94.4362 153.762 94.338 153.613L93.8352 152.657C88.9586 143.658 89.411 131.843 94.2877 120.833C94.3697 120.645 94.506 120.485 94.6792 120.375C94.8524 120.265 95.0546 120.209 95.2599 120.214C95.4652 120.219 95.6642 120.286 95.8314 120.405C95.9985 120.524 96.1263 120.691 96.1982 120.883C97.2028 123.248 98.4141 125.519 99.818 127.671C102.007 130.915 104.498 133.945 107.259 136.72C108.616 138.077 110.074 139.385 111.532 140.642C112.99 141.898 114.549 143.055 116.107 144.161C116.403 144.38 116.773 144.476 117.138 144.429C117.503 144.382 117.837 144.196 118.068 143.909C118.196 143.765 118.293 143.597 118.355 143.415C118.417 143.232 118.441 143.039 118.427 142.847C118.413 142.655 118.361 142.467 118.273 142.296C118.186 142.124 118.064 141.972 117.917 141.848C116.509 140.642 115.202 139.385 113.895 138.077C112.588 136.77 111.381 135.413 110.225 134.005C107.925 131.246 105.904 128.265 104.192 125.106C102.533 121.989 101.276 118.671 100.874 115.454C100.653 113.95 100.687 112.421 100.974 110.929C101.091 110.317 101.295 109.724 101.578 109.169C101.696 109.013 101.798 108.845 101.879 108.666C102.885 107.45 103.96 106.292 105.097 105.197C119.174 91.1204 138.731 86.4448 152.506 93.8353L153.512 94.3883C153.675 94.4788 153.86 94.522 154.047 94.5131C154.233 94.5042 154.414 94.4436 154.568 94.338L155.523 93.7347C158.741 91.6734 162.31 91.6232 164.271 93.5839C166.232 95.5446 166.181 99.4158 163.919 102.633L163.265 103.538C163.163 103.692 163.1 103.869 163.082 104.054C163.065 104.238 163.093 104.424 163.165 104.594L163.668 105.6C167.338 113.191 167.438 122.542 164.422 131.693Z" fill="black"/>
</g>
</svg>
