<svg width="256" height="256" viewBox="0 0 256 256" fill="none" xmlns="http://www.w3.org/2000/svg">
<mask id="mask0_124_56" style="mask-type:alpha" maskUnits="userSpaceOnUse" x="0" y="0" width="256" height="256">
<circle cx="128" cy="128" r="128" fill="#3A00FF"/>
</mask>
<g mask="url(#mask0_124_56)">
<circle cx="128" cy="128" r="128" fill="#522398"/>
<path d="M101.498 113.963L106.174 119.609C112.373 127.043 119.34 130.808 126.977 130.808C141.194 130.808 154.076 117.821 155.417 115.563C155.32 115.751 155.508 115.469 155.798 114.998C138.524 104.271 121.346 93.5437 104.168 82.8164C101.304 81.0284 98.4404 80.0874 95.5829 82.2517C92.7169 84.4161 93.0033 87.239 93.9573 90.3444C96.531 98.2488 99.1113 106.059 101.498 113.963Z" fill="white"/>
<path d="M164.48 129.583C164.48 133.818 162.093 137.77 158.372 139.84C140.813 150.85 123.159 161.86 105.6 172.869C104.742 173.434 103.885 173.905 103.02 174.469C100.827 176.069 97.776 176.069 95.5764 174.375C93.2884 172.775 92.4299 169.858 93.3839 167.317C94.7185 162.706 96.1505 158.095 97.6793 153.484C99.7757 146.898 102.162 140.405 103.691 133.724C104.549 130.242 104.549 126.666 103.691 123.184C128.79 153.297 159.52 118.95 158.372 118.197C162.474 120.738 164.48 124.313 164.48 129.583Z" fill="white"/>
</g>
</svg>
