<svg width="256" height="256" viewBox="0 0 256 256" fill="none" xmlns="http://www.w3.org/2000/svg">
<mask id="mask0_125_21" style="mask-type:alpha" maskUnits="userSpaceOnUse" x="0" y="0" width="256" height="256">
<circle cx="128" cy="128" r="128" fill="#3A00FF"/>
</mask>
<g mask="url(#mask0_125_21)">
<circle cx="128" cy="128" r="128" fill="#DC69C0"/>
<circle cx="128" cy="128" r="128" fill="#DC69C0"/>
<path d="M50.6093 101.6H67.3373L80.7033 149.078H81.6873L95.0533 101.6H111.781V159H102.433V111.686H101.449L88.2473 159H74.1433L60.9413 111.686H59.9573V159H50.6093V101.6ZM122.439 101.6H159.667V110.292H131.951V125.79H157.371V134.482H131.951V150.308H160.077V159H122.439V101.6ZM168.164 101.6H191.124C196.481 101.6 200.827 103.213 204.162 106.438C207.497 109.663 209.164 113.955 209.164 119.312C209.164 124.615 207.469 128.906 204.08 132.186C200.691 135.411 196.372 137.024 191.124 137.024H177.676V159H168.164V101.6ZM177.676 110.292V128.332H190.14C193.092 128.332 195.415 127.539 197.11 125.954C198.805 124.369 199.652 122.155 199.652 119.312C199.652 116.469 198.805 114.255 197.11 112.67C195.47 111.085 193.147 110.292 190.14 110.292H177.676Z" fill="white"/>
</g>
</svg>
