<svg width="256" height="256" viewBox="0 0 256 256" fill="none" xmlns="http://www.w3.org/2000/svg">
<mask id="mask0_125_13" style="mask-type:alpha" maskUnits="userSpaceOnUse" x="0" y="0" width="256" height="256">
<circle cx="128" cy="128" r="128" fill="#3A00FF"/>
</mask>
<g mask="url(#mask0_125_13)">
<circle cx="128" cy="128" r="128" fill="#6E6E6E"/>
<path d="M97.4966 123.566C97.4966 113.756 100.185 106.09 105.563 100.567C111.013 94.9717 118.497 92.174 128.017 92.174C137.463 92.174 144.912 94.9717 150.362 100.567C155.812 106.09 158.537 113.756 158.537 123.566V140.134C158.537 150.017 155.848 157.719 150.471 163.242C145.093 168.765 137.609 171.526 128.017 171.526C118.497 171.526 111.013 168.765 105.563 163.242C100.185 157.719 97.4966 150.017 97.4966 140.134V123.566ZM110.141 123.13V140.57C110.141 146.819 111.63 151.652 114.61 155.067C117.589 158.41 122.058 160.081 128.017 160.081C134.048 160.081 138.517 158.373 141.424 154.958C144.403 151.543 145.893 146.747 145.893 140.57V123.13C145.893 116.953 144.33 112.157 141.206 108.742C138.154 105.327 133.757 103.619 128.017 103.619C122.203 103.619 117.771 105.363 114.719 108.851C111.667 112.266 110.141 117.026 110.141 123.13Z" fill="white"/>
</g>
</svg>
